<svg width="19" height="23" viewBox="0 0 19 23" fill="none" xmlns="http://www.w3.org/2000/svg">
<path d="M1 16.6L2.16591 15.3532C3.83857 17.0467 6.16175 17.7065 8.73004 17.7065C13.8254 17.7065 17.956 13.5759 17.956 8.48052C17.956 5.95344 16.94 3.66367 15.2942 1.9974L16.4597 1M9.22857 17.7065V21.4M9.22857 21.4H3.74286M9.22857 21.4H14.4649M14.2 8.2C14.2 11.5137 11.5137 14.2 8.2 14.2C4.88629 14.2 2.2 11.5137 2.2 8.2C2.2 4.88629 4.88629 2.2 8.2 2.2C11.5137 2.2 14.2 4.88629 14.2 8.2Z" stroke="black" stroke-width="2" stroke-linecap="round" stroke-linejoin="round"/>
</svg>
