<svg width="22" height="7" viewBox="0 0 22 7" fill="none" xmlns="http://www.w3.org/2000/svg"><path d="M5.8 3.4C5.8 4.72548 4.72548 5.8 3.4 5.8C2.07452 5.8 1 4.72548 1 3.4C1 2.07452 2.07452 1 3.4 1C4.72548 1 5.8 2.07452 5.8 3.4Z" stroke="black" stroke-width="2"/><path d="M13 3.4C13 4.72548 11.9255 5.8 10.6 5.8C9.27452 5.8 8.2 4.72548 8.2 3.4C8.2 2.07452 9.27452 1 10.6 1C11.9255 1 13 2.07452 13 3.4Z" stroke="black" stroke-width="2"/><path d="M20.2 3.4C20.2 4.72548 19.1255 5.8 17.8 5.8C16.4745 5.8 15.4 4.72548 15.4 3.4C15.4 2.07452 16.4745 1 17.8 1C19.1255 1 20.2 2.07452 20.2 3.4Z" stroke="black" stroke-width="2"/></svg>
